<svg xmlns="http://www.w3.org/2000/svg" viewBox="0 0 71.95 62.6"><defs><style>.cls-1{fill:#ba9bc9;}.cls-2{fill:#838bc5;}</style></defs><g id="Livello_2" data-name="Livello 2"><g id="Logo_2" data-name="Logo 2"><path class="cls-1" d="M72,19V59.6a3,3,0,0,1-3,3H61a3,3,0,0,1-3-3V19a5,5,0,0,0-8.53-3.53l-9.93,9.93a5,5,0,0,1-3.24,1.46,46.09,46.09,0,0,0,.81-7.72c0-3.42-.62-5.51-1.65-9.46L39.52,5.6C51.48-6.36,72,2.11,72,19Z"/><path class="cls-2" d="M22.51,22.61A4.92,4.92,0,0,1,19,24.09a5,5,0,1,1,3.51-1.48Zm12.9-12.9A19,19,0,0,0,0,19.12c0,.09,0,30.67.05,40.48a3,3,0,0,0,3,3h7.86a3,3,0,0,0,3-3l-.2-16.37a5.09,5.09,0,0,1,5.19-5.11H19A18.94,18.94,0,0,0,36.25,26.89a18.9,18.9,0,0,0-.84-17.18Z"/></g></g></svg>